# File created by Blade
# Date/Time:  Tue Sep 30 19:15:05 2014
# Frame Rate: 120.000 fps
#------------------------------------------------------
:FULLY-SPECIFIED
:DEGREES
1239
root -1.739796 33.137934 -3.480493 -2.389281 6.240500 -13.327678
Spine 1.328514 2.198374 10.072128
Head -4.399020 -15.992090 14.013396
LeftShoulder 17.904434 8.540074 19.215712
LeftArm 4.810052 -23.717254 -80.625345
LeftForeArm -127.261356 19.235183 -14.069672
LeftHand 0.000046 36.528943 24.475611
LeftHandThumb1 30.357831 13.997178 22.438692
RightShoulder -11.474406 -21.056400 -13.298951
RightArm 13.907287 -13.174561 75.659154
RightForeArm 23.187515 -11.537248 25.029162
RightHand 0.000036 -6.582472 10.844755
RightHandThumb1 30.482666 -12.916435 -20.793814
LeftUpLeg -6.528222 6.663189 7.088755
LeftLeg 19.384899 -0.000000 -0.000000
LeftFoot -15.721730 -1.101398 -8.621201
LeftToeBase -0.211900 -0.000000 0.000000
RightUpLeg -96.008859 -9.742839 8.235198
RightLeg 101.301399 -0.000000 -0.000000
RightFoot 33.688631 -8.137888 -4.091033
RightToeBase 16.541800 -0.000000 -0.000000
1240
root -1.728497 33.134634 -3.469293 -2.354473 6.122946 -13.250179
Spine 1.324664 2.250543 9.978865
Head -4.354784 -15.987222 14.043558
LeftShoulder 17.894832 8.517698 19.240140
LeftArm 4.752149 -23.659986 -80.795411
LeftForeArm -127.280317 19.369871 -14.169958
LeftHand -0.000062 36.528302 24.478638
LeftHandThumb1 30.357831 13.997178 22.438692
RightShoulder -11.392474 -21.055022 -13.310861
RightArm 13.960798 -13.088901 75.678061
RightForeArm 23.074737 -11.447726 24.980079
RightHand 0.000027 -6.535330 10.896251
RightHandThumb1 30.482666 -12.916435 -20.793814
LeftUpLeg -6.535843 6.706367 7.000814
LeftLeg 19.456699 -0.000000 -0.000000
LeftFoot -15.792620 -1.025854 -8.744589
LeftToeBase -0.008000 -0.000000 0.000000
RightUpLeg -96.037062 -9.685472 8.373988
RightLeg 102.687500 -0.000000 -0.000000
RightFoot 33.894431 -7.954584 -3.709693
RightToeBase 16.795500 0.000000 0.000000
1241
root -1.723897 33.132735 -3.461693 -2.324638 5.979013 -13.214212
Spine 1.340250 2.337786 9.922554
Head -4.351227 -16.000951 14.072095
LeftShoulder 17.822184 8.497801 19.249854
LeftArm 4.682636 -23.581854 -80.956613
LeftForeArm -127.259108 19.398459 -14.178800
LeftHand 0.000062 36.478339 24.476549
LeftHandThumb1 30.357831 13.997178 22.438692
RightShoulder -11.422444 -21.042018 -13.288263
RightArm 13.971060 -13.128362 75.680321
RightForeArm 22.985673 -11.389549 24.964515
RightHand -0.000010 -6.459181 10.865755
RightHandThumb1 30.482666 -12.916435 -20.793814
LeftUpLeg -6.562102 6.829765 6.978395
LeftLeg 19.556999 -0.000000 -0.000000
LeftFoot -15.826639 -1.081245 -8.840913
LeftToeBase 0.002300 -0.000000 -0.000000
RightUpLeg -96.044410 -9.591806 8.565179
RightLeg 103.898102 -0.000000 0.000000
RightFoot 34.166897 -7.677228 -3.446177
RightToeBase 16.681900 -0.000000 -0.000000
1242
root -1.717997 33.130732 -3.455393 -2.292686 5.876129 -13.192520
Spine 1.335204 2.372404 9.895401
Head -4.307192 -16.014160 14.056039
LeftShoulder 17.763310 8.482941 19.231414
LeftArm 4.614208 -23.522678 -81.080005
LeftForeArm -127.212248 19.438254 -14.182510
LeftHand -0.000016 36.390019 24.577700
LeftHandThumb1 30.357831 13.997178 22.438692
RightShoulder -11.442550 -21.013741 -13.277914
RightArm 14.030545 -13.126672 75.664944
RightForeArm 22.873762 -11.294663 24.902907
RightHand 0.000001 -6.492627 10.918630
RightHandThumb1 30.482666 -12.916435 -20.793814
LeftUpLeg -6.600068 6.919856 6.963323
LeftLeg 19.651100 -0.000000 -0.000000
LeftFoot -15.836938 -1.144274 -8.915896
LeftToeBase -0.017200 -0.000000 0.000000
RightUpLeg -96.056725 -9.563383 8.781355
RightLeg 104.969101 -0.000000 -0.000000
RightFoot 34.437759 -7.745491 -2.892682
RightToeBase 16.352501 0.000000 0.000000
1243
root -1.711497 33.128332 -3.451893 -2.233644 5.799397 -13.179793
Spine 1.298502 2.406217 9.886896
Head -4.271625 -16.022690 14.032997
LeftShoulder 17.668057 8.439394 19.180159
LeftArm 4.528128 -23.436309 -81.211606
LeftForeArm -127.234094 19.598646 -14.301218
LeftHand 0.000042 36.386601 24.330449
LeftHandThumb1 30.357831 13.997178 22.438692
RightShoulder -11.465771 -21.002985 -13.283885
RightArm 14.102947 -13.164060 75.650241
RightForeArm 22.786307 -11.232658 24.877415
RightHand -0.000043 -6.576894 10.855716
RightHandThumb1 30.482666 -12.916435 -20.793814
LeftUpLeg -6.677918 6.990585 6.955643
LeftLeg 19.737000 -0.000000 -0.000000
LeftFoot -15.852941 -1.227915 -8.937932
LeftToeBase -0.011300 -0.000000 0.000000
RightUpLeg -96.064829 -9.561072 8.955748
RightLeg 105.915604 -0.000000 -0.000000
RightFoot 34.532812 -7.535561 -2.534852
RightToeBase 16.420700 -0.000000 -0.000000
1244
root -1.704297 33.124934 -3.450093 -2.186542 5.744796 -13.163972
Spine 1.283761 2.419395 9.876042
Head -4.260483 -16.026392 14.030981
LeftShoulder 17.653663 8.406228 19.163837
LeftArm 4.436290 -23.438463 -81.406935
LeftForeArm -127.223088 19.648614 -14.329319
LeftHand 0.000013 36.328176 24.174616
LeftHandThumb1 30.357831 13.997178 22.438692
RightShoulder -11.481186 -20.989486 -13.289675
RightArm 14.111253 -13.181725 75.647205
RightForeArm 22.671905 -11.185842 24.909787
RightHand -0.000027 -6.514017 10.872455
RightHandThumb1 30.482666 -12.916435 -20.793814
LeftUpLeg -6.745836 7.054959 6.929615
LeftLeg 19.817801 -0.000000 0.000000
LeftFoot -15.893263 -1.268082 -8.940129
LeftToeBase 0.042700 0.000000 0.000000
RightUpLeg -96.059622 -9.593588 9.172078
RightLeg 106.715500 -0.000000 -0.000000
RightFoot 34.545184 -7.448097 -2.368781
RightToeBase 16.349800 -0.000000 -0.000000
1245
root -1.694597 33.120932 -3.449493 -2.145921 5.711203 -13.131875
Spine 1.277667 2.419399 9.858186
Head -4.246873 -16.067806 14.006526
LeftShoulder 17.559306 8.370952 19.013986
LeftArm 4.252976 -23.409013 -81.355598
LeftForeArm -127.196611 19.320760 -14.095696
LeftHand 0.000028 36.145567 23.850117
LeftHandThumb1 30.357831 13.997178 22.438692
RightShoulder -11.523843 -20.985281 -13.306404
RightArm 14.110405 -13.214421 75.649721
RightForeArm 22.540821 -11.150522 24.982635
RightHand -0.000032 -6.487894 10.879568
RightHandThumb1 30.482666 -12.916435 -20.793814
LeftUpLeg -6.811425 7.075279 6.874354
LeftLeg 19.896999 0.000000 0.000000
LeftFoot -15.932787 -1.250448 -8.950345
LeftToeBase 0.153200 0.000000 0.000000
RightUpLeg -96.055986 -9.670434 9.337904
RightLeg 107.401299 -0.000000 -0.000000
RightFoot 34.561022 -7.423272 -2.160549
RightToeBase 16.317900 -0.000000 -0.000000
1246
root -1.685197 33.115733 -3.449893 -2.105381 5.678965 -13.109593
Spine 1.265651 2.417848 9.849633
Head -4.220921 -16.111074 14.010339
LeftShoulder 17.518721 8.383565 18.943110
LeftArm 4.324243 -23.513333 -81.426528
LeftForeArm -127.188437 19.699464 -14.346180
LeftHand -0.000078 36.279894 24.200221
LeftHandThumb1 30.357831 13.997178 22.438692
RightShoulder -11.542715 -20.968991 -13.331683
RightArm 14.154584 -13.225685 75.643478
RightForeArm 22.436949 -11.096740 24.990435
RightHand 0.000011 -6.554278 10.965325
RightHandThumb1 30.482666 -12.916435 -20.793814
LeftUpLeg -6.865125 7.126319 6.831945
LeftLeg 19.947201 0.000000 0.000000
LeftFoot -15.969010 -1.283183 -8.949814
LeftToeBase 0.196400 0.000000 0.000000
RightUpLeg -96.028121 -9.744187 9.469818
RightLeg 107.964897 -0.000000 -0.000000
RightFoot 34.466980 -7.495011 -1.947815
RightToeBase 15.963400 -0.000000 -0.000000
1247
root -1.673997 33.110033 -3.451693 -2.065027 5.656735 -13.078747
Spine 1.257067 2.422414 9.833229
Head -4.224371 -16.157734 13.995222
LeftShoulder 17.455302 8.379155 18.871817
LeftArm 4.339443 -23.586500 -81.507484
LeftForeArm -127.154227 19.827543 -14.414843
LeftHand -0.000012 36.372254 24.233035
LeftHandThumb1 30.357831 13.997178 22.438692
RightShoulder -11.551568 -20.974329 -13.354669
RightArm 14.176547 -13.230374 75.638221
RightForeArm 22.328407 -11.039341 24.996117
RightHand 0.000057 -6.551182 10.990633
RightHandThumb1 30.482666 -12.916435 -20.793814
LeftUpLeg -6.919639 7.124346 6.771742
LeftLeg 19.991699 -0.000000 0.000000
LeftFoot -16.011236 -1.244707 -8.934199
LeftToeBase 0.201800 -0.000000 -0.000000
RightUpLeg -96.001507 -9.841478 9.614972
RightLeg 108.421204 0.000000 0.000000
RightFoot 34.219966 -7.491133 -2.068236
RightToeBase 16.301701 -0.000000 0.000000
